<svg width="50" height="50" viewBox="0 0 50 50" fill="none" xmlns="http://www.w3.org/2000/svg">
<rect width="50" height="50" rx="25" fill="#FEC1C0"/>
<path d="M17.728 29.137C16.183 27.591 15.41 26.819 15.123 25.816C14.835 24.813 15.081 23.748 15.573 21.619L15.856 20.391C16.269 18.599 16.476 17.703 17.089 17.089C17.702 16.475 18.599 16.269 20.391 15.856L21.619 15.572C23.749 15.081 24.813 14.835 25.816 15.122C26.819 15.41 27.591 16.183 29.136 17.728L30.966 19.558C33.657 22.248 35 23.592 35 25.262C35 26.933 33.656 28.277 30.967 30.966C28.277 33.656 26.933 35 25.262 35C23.592 35 22.247 33.656 19.558 30.967L17.728 29.137Z" stroke="#468386" stroke-width="1.5"/>
<path d="M28.39 28.39C28.975 27.803 29.054 26.933 28.566 26.444C28.078 25.955 27.207 26.035 26.621 26.621C26.036 27.207 25.165 27.286 24.677 26.798C24.189 26.31 24.268 25.439 24.854 24.854M24.854 24.854L24.5 24.5M24.854 24.854C25.185 24.522 25.607 24.354 26 24.357M28.743 28.743L28.389 28.389C27.989 28.79 27.454 28.954 27 28.86" stroke="#468386" stroke-width="1.5" stroke-linecap="round"/>
<path d="M23.0212 23.2932C23.8023 22.5122 23.8023 21.2459 23.0212 20.4648C22.2402 19.6838 20.9738 19.6838 20.1928 20.4648C19.4117 21.2459 19.4117 22.5122 20.1928 23.2932C20.9738 24.0743 22.2402 24.0743 23.0212 23.2932Z" stroke="#468386" stroke-width="1.5"/>
</svg>
