<svg width="50" height="50" viewBox="0 0 50 50" fill="none" xmlns="http://www.w3.org/2000/svg">
<rect width="50" height="50" rx="25" fill="#FEC1C0"/>
<path d="M31.8437 20.875C31.7064 22.7814 30.2922 24.25 28.75 24.25C27.2078 24.25 25.7912 22.7819 25.6562 20.875C25.5156 18.8917 26.8923 17.5 28.75 17.5C30.6076 17.5 31.9844 18.9278 31.8437 20.875Z" stroke="#468386" stroke-width="1.5" stroke-linecap="round" stroke-linejoin="round"/>
<path d="M28.7501 27.25C25.6952 27.25 22.7576 28.7673 22.0216 31.7223C21.9241 32.1133 22.1693 32.5 22.571 32.5H34.9296C35.3313 32.5 35.5751 32.1133 35.479 31.7223C34.743 28.72 31.8054 27.25 28.7501 27.25Z" stroke="#468386" stroke-width="1.5" stroke-miterlimit="10"/>
<path d="M22.3751 21.7159C22.2654 23.2384 21.1226 24.4375 19.8907 24.4375C18.6588 24.4375 17.5141 23.2389 17.4063 21.7159C17.2943 20.132 18.4066 19 19.8907 19C21.3748 19 22.4871 20.1611 22.3751 21.7159Z" stroke="#468386" stroke-width="1.5" stroke-linecap="round" stroke-linejoin="round"/>
<path d="M22.6562 27.3438C21.8101 26.9561 20.8783 26.8071 19.8906 26.8071C17.4531 26.8071 15.1047 28.0188 14.5164 30.3789C14.439 30.6911 14.635 31 14.9556 31H20.2187" stroke="#468386" stroke-width="1.5" stroke-miterlimit="10" stroke-linecap="round"/>
</svg>
