<svg width="50" height="50" viewBox="0 0 50 50" fill="none" xmlns="http://www.w3.org/2000/svg">
<rect width="50" height="50" rx="25" fill="#FEC1C0"/>
<path d="M27 16.269C27 15.568 26.432 15 25.731 15H24.27C23.568 15 23 15.568 23 16.269C23 16.847 22.604 17.343 22.065 17.555C21.9797 17.5897 21.8953 17.625 21.812 17.661C21.281 17.891 20.65 17.821 20.24 17.412C20.0019 17.1745 19.6793 17.041 19.343 17.041C19.0067 17.041 18.6841 17.1745 18.446 17.412L17.412 18.446C17.1745 18.6841 17.041 19.0067 17.041 19.343C17.041 19.6793 17.1745 20.0019 17.412 20.24C17.822 20.65 17.892 21.28 17.66 21.812C17.6236 21.8957 17.5886 21.9801 17.555 22.065C17.343 22.604 16.847 23 16.269 23C15.568 23 15 23.568 15 24.269V25.731C15 26.432 15.568 27 16.269 27C16.847 27 17.343 27.396 17.555 27.935C17.5897 28.0203 17.6247 28.1047 17.66 28.188C17.891 28.719 17.821 29.35 17.412 29.76C17.1745 29.9981 17.041 30.3207 17.041 30.657C17.041 30.9933 17.1745 31.3159 17.412 31.554L18.446 32.588C18.6841 32.8255 19.0067 32.959 19.343 32.959C19.6793 32.959 20.0019 32.8255 20.24 32.588C20.65 32.178 21.28 32.108 21.812 32.339C21.8953 32.3757 21.9797 32.411 22.065 32.445C22.604 32.657 23 33.153 23 33.731C23 34.432 23.568 35 24.269 35H25.731C26.432 35 27 34.432 27 33.731C27 33.153 27.396 32.657 27.935 32.444C28.0203 32.4107 28.1047 32.376 28.188 32.34C28.719 32.108 29.35 32.179 29.759 32.588C29.9971 32.8258 30.3199 32.9594 30.6565 32.9594C30.9931 32.9594 31.3159 32.8258 31.554 32.588L32.588 31.554C32.8255 31.3159 32.959 30.9933 32.959 30.657C32.959 30.3207 32.8255 29.9981 32.588 29.76C32.178 29.35 32.108 28.72 32.339 28.188C32.3757 28.1047 32.411 28.0203 32.445 27.935C32.657 27.396 33.153 27 33.731 27C34.432 27 35 26.432 35 25.731V24.27C35 23.569 34.432 23.001 33.731 23.001C33.153 23.001 32.657 22.605 32.444 22.066C32.4104 21.9811 32.3754 21.8967 32.339 21.813C32.109 21.282 32.179 20.651 32.588 20.241C32.8255 20.0029 32.959 19.6803 32.959 19.344C32.959 19.0077 32.8255 18.6851 32.588 18.447L31.554 17.413C31.3159 17.1755 30.9933 17.042 30.657 17.042C30.3207 17.042 29.9981 17.1755 29.76 17.413C29.35 17.823 28.72 17.893 28.188 17.662C28.1043 17.6252 28.0199 17.5899 27.935 17.556C27.396 17.343 27 16.846 27 16.269Z" stroke="#468386" stroke-width="2"/>
<path d="M29 25C29 26.0609 28.5786 27.0783 27.8284 27.8284C27.0783 28.5786 26.0609 29 25 29C23.9391 29 22.9217 28.5786 22.1716 27.8284C21.4214 27.0783 21 26.0609 21 25C21 23.9391 21.4214 22.9217 22.1716 22.1716C22.9217 21.4214 23.9391 21 25 21C26.0609 21 27.0783 21.4214 27.8284 22.1716C28.5786 22.9217 29 23.9391 29 25Z" stroke="#468386" stroke-width="2"/>
</svg>
