<svg width="50" height="50" viewBox="0 0 50 50" fill="none" xmlns="http://www.w3.org/2000/svg">
<rect width="50" height="50" rx="25" fill="#FEC1C0"/>
<path d="M15.0944 24.0865C15.0825 23.9484 15.0993 23.8094 15.1439 23.6782C15.1885 23.5469 15.2599 23.4264 15.3536 23.3243C15.4472 23.2221 15.5611 23.1405 15.6879 23.0847C15.8148 23.0289 15.9519 23 16.0904 23H17.9999C18.2652 23 18.5195 23.1054 18.7071 23.2929C18.8946 23.4804 18.9999 23.7348 18.9999 24V33.5C18.9999 33.7652 18.8946 34.0196 18.7071 34.2071C18.5195 34.3946 18.2652 34.5 17.9999 34.5H16.9169C16.6667 34.5001 16.4255 34.4063 16.241 34.2371C16.0565 34.068 15.9421 33.8358 15.9204 33.5865L15.0944 24.0865ZM21.9999 23.6875C21.9999 23.2695 22.2599 22.8955 22.6374 22.7175C23.4619 22.3285 24.8664 21.547 25.4999 20.4905C26.3164 19.1285 26.4704 16.668 26.4954 16.1045C26.4989 16.0255 26.4969 15.9465 26.5074 15.8685C26.6429 14.892 28.5274 16.0325 29.2499 17.2385C29.6424 17.8925 29.6924 18.752 29.6514 19.4235C29.6069 20.1415 29.3964 20.835 29.1899 21.524L28.7499 22.9925H34.1784C34.3329 22.9925 34.4854 23.0283 34.6237 23.0971C34.762 23.1658 34.8826 23.2658 34.9758 23.3889C35.0691 23.5121 35.1325 23.6553 35.1612 23.8071C35.1898 23.9589 35.1829 24.1153 35.1409 24.264L32.4559 33.772C32.3967 33.9817 32.2705 34.1663 32.0967 34.2977C31.9229 34.4291 31.7109 34.5001 31.4929 34.5H22.9999C22.7347 34.5 22.4804 34.3946 22.2928 34.2071C22.1053 34.0196 21.9999 33.7652 21.9999 33.5V23.6875Z" stroke="#468386" stroke-width="2" stroke-linecap="round" stroke-linejoin="round"/>
</svg>
